<?xml version="1.0" standalone="no"?>
<!DOCTYPE svg PUBLIC "-//W3C//DTD SVG 20010904//EN"
 "http://www.w3.org/TR/2001/REC-SVG-20010904/DTD/svg10.dtd">
<svg version="1.0" xmlns="http://www.w3.org/2000/svg"
 width="1280.000000pt" height="1280.000000pt" viewBox="0 0 1280.000000 1280.000000"
 preserveAspectRatio="xMidYMid meet">

<g transform="translate(0.000000,1280.000000) scale(0.100000,-0.100000)"
fill="#000000" stroke="none">
<path d="M5478 9013 c-137 -2 -248 -6 -248 -10 0 -3 24 -31 53 -62 29 -31 65
-76 80 -101 57 -98 55 -65 71 -1333 9 -645 17 -1257 20 -1362 2 -104 -1 -217
-6 -250 -13 -84 -59 -175 -126 -246 l-56 -61 549 6 c303 3 638 9 746 12 l196
6 17 -73 c46 -205 139 -329 246 -329 70 0 142 36 175 87 19 29 9 43 -34 43
-38 0 -110 41 -142 81 -36 45 -79 136 -79 167 0 22 0 22 168 22 92 0 184 3
205 6 l38 7 -1 262 c-1 144 -5 267 -10 274 -5 9 -18 -2 -41 -35 -54 -80 -170
-185 -264 -241 -49 -29 -95 -53 -103 -53 -33 0 16 253 81 415 75 187 218 398
438 649 128 147 239 247 353 321 160 104 278 149 392 149 62 0 78 -3 120 -30
74 -45 106 -114 112 -241 19 -396 -230 -1039 -683 -1763 l-72 -115 -149 -63
c-706 -298 -1236 -650 -1463 -973 -104 -146 -102 -138 -99 -386 l3 -217 40
-28 c149 -104 427 -19 693 211 241 209 628 693 1005 1258 82 122 82 122 147
148 74 30 89 40 113 75 18 27 23 75 7 85 -5 3 -25 -1 -45 -9 -19 -8 -35 -13
-35 -10 0 3 40 73 89 157 438 752 649 1324 611 1657 -18 161 -65 257 -154 317
-235 160 -655 11 -1034 -365 -329 -327 -577 -760 -636 -1111 -9 -52 -16 -116
-16 -142 0 -43 -2 -47 -27 -54 -39 -10 -305 -24 -448 -25 -275 0 -395 57 -424
203 -12 57 -47 2648 -38 2750 7 82 63 191 133 263 30 31 54 58 54 60 0 2 -62
3 -137 2 -76 -2 -249 -4 -385 -5z m1991 -4100 c-198 -282 -637 -845 -763 -981
-153 -163 -368 -282 -512 -282 -56 0 -68 4 -96 29 -27 24 -32 36 -36 88 -11
151 83 320 292 528 169 168 350 302 624 459 196 112 560 292 570 281 3 -2 -33
-57 -79 -122z"/>
</g>
</svg>
